<svg width="23" height="21" viewBox="0 0 23 21" fill="none" xmlns="http://www.w3.org/2000/svg">
<path d="M11.3139 4.93443L10.6641 4.30398C10.5296 4.17347 10.4001 4.04843 10.2744 3.92695C10.0546 3.7146 9.84605 3.51315 9.6414 3.31251C8.00066 1.70473 5.7423 1.24953 3.93293 2.03076L3.93277 2.03083C2.11901 2.81354 0.856964 4.80701 0.901053 7.03884L0.901054 7.0389C0.934362 8.73075 1.64321 10.2309 2.67628 11.7151L2.67657 11.7155C4.9314 14.9588 7.9903 17.395 11.2533 19.7809C13.6307 18.0499 15.895 16.2636 17.8502 14.1485L18.5111 14.7594L17.8502 14.1485C19.5093 12.3537 20.8745 10.5382 21.4325 8.29019L21.4325 8.28995C22.0206 5.92333 21.0148 3.45777 19.1001 2.30561L11.3139 4.93443ZM11.3139 4.93443L11.9405 4.28081M11.3139 4.93443L11.9405 4.28081M11.9405 4.28081C12.0846 4.13044 12.212 3.99235 12.3317 3.86251C12.5615 3.61331 12.7632 3.39452 13.0019 3.17777L13.0022 3.17745M11.9405 4.28081L13.0022 3.17745M13.0022 3.17745C14.8652 1.48351 17.2782 1.21 19.0999 2.30551L13.0022 3.17745ZM11.0872 19.9016C11.0874 19.9014 11.0877 19.9013 11.0879 19.9011C11.0877 19.9012 11.0875 19.9014 11.0873 19.9015L11.0872 19.9016ZM11.1764 19.8513L11.1834 19.851C11.1896 19.8508 11.2037 19.8508 11.2249 19.8533C11.2452 19.8556 11.2813 19.8613 11.3277 19.8764C11.3732 19.8913 11.444 19.9201 11.5214 19.9765L11.1764 19.8513Z" stroke="black" stroke-width="1.8"/>
</svg>
